<svg clip-rule="evenodd" fill-rule="evenodd" stroke-linejoin="round" stroke-miterlimit="2" viewBox="0 0 1024 1024" xmlns="http://www.w3.org/2000/svg"><g><path d="m0 0h1024v1024h-1024z" fill="none"/><g transform="translate(-1124)"><path d="m2132.2 487.908c.38 7.988.57 16.018.57 24.092 0 195.603-112.26 365.086-275.53 446.965l-192.12-3.968z" fill="#c6a0f6"/><path d="m2085.3 298.968c27.21 57.755 43.71 121.608 46.9 188.94l-467.08 467.089-231.08-4.772z" fill="#7dc4e4"/><path d="m1988.23 160.193c39.73 40.153 72.7 87.038 97.07 138.775l-651.26 651.257-38.09-.787v.145c-41.35-22.889-79.13-51.521-112.27-84.839z" fill="#a6da95"/><path d="m1850.75 61.837c51.32 24.813 97.76 58.215 137.48 98.356l-704.55 704.551c-39.8-40.02-72.89-86.791-97.4-138.445z" fill="#eed49f"/><path d="m1663.28 13.462c66.85 3.708 130.21 20.699 187.47 48.375l-664.47 664.462c-27.33-57.602-43.99-121.277-47.41-188.431z" fill="#f5a97f"/><path d="m1138.87 537.868c-.44-8.586-.66-17.201-.66-25.868 0-275.575 222.83-499.306 497.28-499.306 9.34 0 18.61.259 27.79.768z" fill="#ed8796"/></g><path d="m271.955 949.438c7.44-57.029 18.443-106.927 33.049-149.734-70.305-36.162-122.281-96.973-134.393-184.788-10.562-76.537 6.905-165.757 52.399-228.996-11.176-42.437-26.419-124.138-15.316-170.525 2.926-12.23 14-20.422 26.551-19.646 59.275 3.686 107.345 26.989 146.125 72.133 72.967-27.224 165.537-26.785 225.777-9.143 31.525-43.929 68.915-67.642 118.521-79.799 11.659-2.867 23.391 2.473 28.906 13.137 22.235 43.037 24.591 103.497 13.254 153.731 143.169 138.592 106.569 340.407-52.283 436.342 11.651 56.946 18.126 115.878 19.394 176.829-66.835 33.485-142.211 52.331-221.939 52.331-87.009 0-168.834-22.444-240.045-61.872z" fill="#eff1f5"/><path d="m677.608 391.128c33.689-2.034 62.713 20.451 71.651 51.332.892 3.101-.351 6.246-3.131 7.855-2.794 1.609-6.217 1.156-8.514-1.141-14.979-14.95-35.752-23.684-57.943-22.543-22.002 1.127-41.019 11.703-53.556 27.59-1.872 2.384-5.032 3.13-7.811 1.828-2.78-1.301-4.286-4.227-3.789-7.329 4.871-30.588 29.93-55.588 63.093-57.592z" fill="#4c4f69"/><path d="m458.735 396.423c19.134-1.185 37.054 5.003 51.464 16.194 14.54 11.293 25.541 27.634 30.661 46.475 1.024 3.804-.439 7.666-3.642 9.611-3.204 1.931-7.125 1.331-9.743-1.463-17.159-18.271-40.96-28.994-66.385-27.692-25.058 1.288-46.709 14.058-60.898 33.222-2.165 2.955-5.72 3.818-8.865 2.209s-4.915-5.193-4.374-8.88c2.706-18.52 11.205-35.298 23.61-47.733 12.508-12.536 29.184-20.758 48.172-21.943z" fill="#4c4f69"/><path d="m603.266 511.771c10.283-.659 20.26-1.302 29.9-1.903 3.189-.19 6.291 2.443 7.885 6.656 1.595 4.213 1.273 8.806-.775 11.922-12.829 19.515-21.022 29.199-30.515 30.384-9.787 1.214-21.314-6.686-42.116-23.157-3.745-2.941-5.837-8.061-5.369-13.078.439-5.032 3.409-8.426 7.49-8.69 11.557-.746 22.733-1.448 33.5-2.134z" fill="#4c4f69"/><path d="m609.936 582.44c2.428-3.277 6.217-3.964 9.45-1.755 10.255 7.109 19.134 9.625 26.727 7.914 7.431-1.697 15.389-3.335 21.65-13.151 9.757-15.272 12.463-5.618 7.534 6.656-3.043 7.534-8.807 16.355-16.853 22.206-8.25 5.983-19.207 9.07-32.694 4.345-4.696-1.639-9.421-.556-13.459 3.101-9.391 8.499-20.772 13.253-32.592 13.444-12.361.204-25.527-4.521-37.493-15.375-13.268-12.039-13.195-25.264 8.367-11.893 12.625 7.87 23.611 5.573 33.207 3.716 9.348-1.844 18.037-8.251 26.156-19.208z" fill="#4c4f69"/><path d="m603.587 851.591c-9.962 20.641-34.187 37.318-55.135 39.029-2.282.176-4.33-.892-5.471-2.881-16.676-29.053-18.49-61.031-12.946-87.918.336-1.624 1.229-2.897 2.648-3.76 1.433-.863 2.969-1.082 4.564-.629 28.277 7.944 49.678 18.11 64.205 30.501 10.064-13.254 23.947-22.426 41.662-27.487 3.028-.863 6.188.863 7.109 3.862 6.481 21.27 8.236 44.105 2.692 64.687-.805 2.984-4.711 5.384-8.485 4.389-14.687-3.847-29.886-11.22-40.843-19.793z" fill="#e64553"/></g></svg>